<svg width="25" height="25" viewBox="0 0 25 25" fill="none" xmlns="http://www.w3.org/2000/svg">
<path d="M25 12.5C25 19.4091 19.4091 25 12.5 25C5.59091 25 0 19.4091 0 12.5C0 5.59091 5.59091 0 12.5 0C19.4091 0 25 5.59091 25 12.5ZM13.6364 3.47727C16.0568 3.78409 18.2614 5.05682 19.7386 7L21.7159 5.86364C20.7822 4.54707 19.5786 3.44453 18.1855 2.62941C16.7924 1.8143 15.2416 1.30532 13.6364 1.13636V3.47727ZM3.28409 5.86364L5.26136 7C5.99389 6.03729 6.91071 5.23002 7.95838 4.62522C9.00606 4.02041 10.1636 3.63019 11.3636 3.47727V1.13636C9.75843 1.30532 8.20763 1.8143 6.81449 2.62941C5.42135 3.44453 4.21784 4.54707 3.28409 5.86364ZM2.14773 17.1591L4.11364 16.0227C3.6467 14.907 3.40624 13.7095 3.40624 12.5C3.40624 11.2905 3.6467 10.093 4.11364 8.97727L2.14773 7.84091C1.47944 9.30323 1.13357 10.8922 1.13357 12.5C1.13357 14.1078 1.47944 15.6968 2.14773 17.1591ZM11.3636 21.5227C10.1636 21.3698 9.00606 20.9796 7.95838 20.3748C6.91071 19.77 5.99389 18.9627 5.26136 18L3.28409 19.1364C4.21784 20.4529 5.42135 21.5555 6.81449 22.3706C8.20763 23.1857 9.75843 23.6947 11.3636 23.8636V21.5227ZM21.7159 19.1364L19.7386 18C19.0061 18.9627 18.0893 19.77 17.0416 20.3748C15.9939 20.9796 14.8364 21.3698 13.6364 21.5227V23.7955C16.875 23.4659 19.8182 21.7727 21.7159 19.1364ZM22.8523 17.1591C24.2045 14.2045 24.2045 10.7955 22.8523 7.84091L20.8864 8.97727C21.3533 10.093 21.5938 11.2905 21.5938 12.5C21.5938 13.7095 21.3533 14.907 20.8864 16.0227L22.8523 17.1591ZM15.9091 12.5L12.5 6.81818L9.09091 12.5L12.5 18.1818L15.9091 12.5Z" fill="url(#paint0_linear_111_69)"/>
<defs>
<linearGradient id="paint0_linear_111_69" x1="13.3224" y1="9.60145" x2="7.09688" y2="25.9224" gradientUnits="userSpaceOnUse">
<stop stop-color="#CB9A23"/>
<stop offset="1" stop-color="#A94F10"/>
</linearGradient>
</defs>
</svg>
