<svg width="20" height="11" viewBox="0 0 20 11" fill="none" xmlns="http://www.w3.org/2000/svg">
<path d="M5.45455 8.25C6.21212 8.25 6.85606 7.98264 7.38636 7.44792C7.91667 6.91319 8.18182 6.26389 8.18182 5.5C8.18182 4.73611 7.91667 4.08681 7.38636 3.55208C6.85606 3.01736 6.21212 2.75 5.45455 2.75C4.69697 2.75 4.05303 3.01736 3.52273 3.55208C2.99242 4.08681 2.72727 4.73611 2.72727 5.5C2.72727 6.26389 2.99242 6.91319 3.52273 7.44792C4.05303 7.98264 4.69697 8.25 5.45455 8.25ZM5.45455 11C3.93939 11 2.65152 10.4653 1.59091 9.39583C0.530303 8.32639 0 7.02778 0 5.5C0 3.97222 0.530303 2.67361 1.59091 1.60417C2.65152 0.534722 3.93939 0 5.45455 0C6.68182 0 7.75394 0.351389 8.67091 1.05417C9.58788 1.75694 10.2279 2.62778 10.5909 3.66667H18.2045L20 5.47708L16.8182 9.14375L14.5455 7.33333L12.7273 9.16667L10.9091 7.33333H10.5909C10.2121 8.43333 9.55303 9.31944 8.61364 9.99167C7.67424 10.6639 6.62121 11 5.45455 11Z" fill="#692424"/>
</svg>
