<svg width="23" height="23" viewBox="0 0 23 23" fill="none" xmlns="http://www.w3.org/2000/svg">
<path fill-rule="evenodd" clip-rule="evenodd" d="M0.000488281 21.2768C0.000488281 20.7173 0.468557 20.2636 1.04595 20.2636H21.9552C22.5326 20.2636 23.0006 20.7173 23.0006 21.2768C23.0006 21.8364 22.5326 22.29 21.9552 22.29H1.04595C0.468557 22.29 0.000488281 21.8364 0.000488281 21.2768Z" fill="url(#paint0_linear_111_189)"/>
<path fill-rule="evenodd" clip-rule="evenodd" d="M22.5048 4.20393C22.813 4.38854 23.0006 4.71465 23.0006 5.0658V18.2373C23.0006 18.7968 22.5326 19.2504 21.9552 19.2504H17.7733C17.1959 19.2504 16.7279 18.7968 16.7279 18.2373V7.09218C16.7279 6.70841 16.9516 6.35758 17.3058 6.18596L21.4876 4.15958C21.8117 4.00254 22.1966 4.01932 22.5048 4.20393ZM18.8188 7.71837V17.2241H20.9097V6.70518L18.8188 7.71837ZM14.1411 8.25669C14.4493 8.4413 14.6369 8.76741 14.6369 9.11856V18.2373C14.6369 18.7968 14.1689 19.2504 13.5915 19.2504H9.40963C8.83224 19.2504 8.36417 18.7968 8.36417 18.2373V11.1449C8.36417 10.7612 8.5879 10.4103 8.94209 10.2387L13.1239 8.21233C13.448 8.0553 13.8329 8.07208 14.1411 8.25669ZM10.4551 11.7711V17.2241H12.546V10.7579L10.4551 11.7711ZM0.40256 11.3595C0.65631 11.1675 0.987188 11.0995 1.29951 11.1752L5.48135 12.1884C5.94676 12.3011 6.27325 12.7064 6.27325 13.1713V18.2373C6.27325 18.7968 5.80518 19.2504 5.22779 19.2504H1.04595C0.468557 19.2504 0.000488281 18.7968 0.000488281 18.2373V12.1581C0.000488281 11.8461 0.148809 11.5515 0.40256 11.3595ZM2.09141 13.4558V17.2241H4.18233V13.9624L2.09141 13.4558Z" fill="url(#paint1_linear_111_189)"/>
<path fill-rule="evenodd" clip-rule="evenodd" d="M15.6822 1.01319C15.6822 0.45362 16.1502 0 16.7276 0H21.9549C22.4398 0 22.861 0.323082 22.9724 0.780406C23.0838 1.23773 22.8561 1.70927 22.4225 1.91941L5.69509 10.0249C5.47188 10.1331 5.2161 10.1603 4.97399 10.1016L0.792146 9.08845C0.231994 8.95273 -0.108576 8.40264 0.0314622 7.85978C0.1715 7.31692 0.739117 6.98686 1.29927 7.12257L5.10592 8.04486L17.5263 2.02638H16.7276C16.1502 2.02638 15.6822 1.57276 15.6822 1.01319Z" fill="url(#paint2_linear_111_189)"/>
<defs>
<linearGradient id="paint0_linear_111_189" x1="12.2571" y1="21.0419" x2="12.2063" y2="22.5556" gradientUnits="userSpaceOnUse">
<stop stop-color="#CB9A23"/>
<stop offset="1" stop-color="#A94F10"/>
</linearGradient>
<linearGradient id="paint1_linear_111_189" x1="12.2571" y1="9.88946" x2="9.56367" y2="20.5759" gradientUnits="userSpaceOnUse">
<stop stop-color="#CB9A23"/>
<stop offset="1" stop-color="#A94F10"/>
</linearGradient>
<linearGradient id="paint2_linear_111_189" x1="12.2568" y1="3.89123" x2="11.0187" y2="11.2601" gradientUnits="userSpaceOnUse">
<stop stop-color="#CB9A23"/>
<stop offset="1" stop-color="#A94F10"/>
</linearGradient>
</defs>
</svg>
