<svg width="20" height="22" viewBox="0 0 20 22" fill="none" xmlns="http://www.w3.org/2000/svg">
<path d="M17 3H18V0H14V3C14 3 16 7 16 11C16 15 14 18 10 18C6 18 4 15 4 11C4 7 6 3 6 3V0H2V3H3C3 3 0 7 0 13C0 18 5 22 10 22C15 22 20 18 20 13C20 7 17 3 17 3ZM2 12C1.4 12 1 11.6 1 11C1 10.4 1.4 10 2 10C2.6 10 3 10.4 3 11C3 11.6 2.6 12 2 12ZM4 18C3.4 18 3 17.6 3 17C3 16.4 3.4 16 4 16C4.6 16 5 16.4 5 17C5 17.6 4.6 18 4 18ZM10 21C9.4 21 9 20.6 9 20C9 19.4 9.4 19 10 19C10.6 19 11 19.4 11 20C11 20.6 10.6 21 10 21ZM16 18C15.4 18 15 17.6 15 17C15 16.4 15.4 16 16 16C16.6 16 17 16.4 17 17C17 17.6 16.6 18 16 18ZM18 12C17.4 12 17 11.6 17 11C17 10.4 17.4 10 18 10C18.6 10 19 10.4 19 11C19 11.6 18.6 12 18 12Z" fill="url(#paint0_linear_111_172)"/>
<defs>
<linearGradient id="paint0_linear_111_172" x1="10.6579" y1="8.44928" x2="4.78819" y2="22.4386" gradientUnits="userSpaceOnUse">
<stop stop-color="#CB9A23"/>
<stop offset="1" stop-color="#A94F10"/>
</linearGradient>
</defs>
</svg>
