<svg width="10" height="8" viewBox="0 0 10 8" fill="none" xmlns="http://www.w3.org/2000/svg">
<path d="M5.9711 7.78475C5.84269 7.64125 5.78105 7.46786 5.78619 7.26457C5.79133 7.06128 5.85831 6.88789 5.98715 6.74439L7.80096 4.71749H0.642056C0.460141 4.71749 0.307546 4.64861 0.184272 4.51085C0.0609974 4.37309 -0.000425814 4.20281 2.22164e-06 4C2.22164e-06 3.79671 0.0616395 3.62619 0.184914 3.48843C0.308188 3.35067 0.460569 3.28203 0.642056 3.28251H7.80096L5.9711 1.23767C5.84269 1.09417 5.77849 0.923647 5.77849 0.726098C5.77849 0.52855 5.84269 0.358266 5.9711 0.215246C6.09951 0.0717487 6.25211 0 6.42889 0C6.60567 0 6.75805 0.0717487 6.88603 0.215246L9.82343 3.49776C9.88763 3.56951 9.93322 3.64723 9.96018 3.73094C9.98715 3.81465 10.0004 3.90433 9.99999 4C9.99999 4.09566 9.98651 4.18535 9.95954 4.26906C9.93257 4.35277 9.8872 4.43049 9.82343 4.50224L6.86998 7.80269C6.75227 7.93423 6.60524 8 6.42889 8C6.25254 8 6.09994 7.92825 5.9711 7.78475Z" fill="#F5C76B"/>
</svg>
