<svg width="25" height="26" viewBox="0 0 25 26" fill="none" xmlns="http://www.w3.org/2000/svg">
<g clip-path="url(#clip0_111_97)">
<path d="M0.814453 13.118C0.813867 15.3025 1.36699 17.4355 2.41875 19.3156L0.713867 25.7392L7.08418 24.0155C8.84612 25.0053 10.8203 25.524 12.8264 25.5241H12.8316C19.4542 25.5241 24.8451 19.963 24.848 13.1278C24.8492 9.81558 23.6004 6.70102 21.3314 4.35779C19.0629 2.01477 16.0458 0.723741 12.8312 0.722229C6.20781 0.722229 0.817187 6.283 0.814453 13.118Z" fill="url(#paint0_linear_111_97)"/>
<path d="M9.44141 7.47228C9.2084 6.93787 8.96318 6.92709 8.7416 6.91772C8.56016 6.90965 8.35273 6.91026 8.14551 6.91026C7.93809 6.91026 7.60107 6.99078 7.31621 7.31175C7.03105 7.63302 6.22754 8.40939 6.22754 9.98844C6.22754 11.5676 7.34209 13.0936 7.49746 13.308C7.65303 13.5219 9.64912 16.866 12.8105 18.1525C15.4378 19.2217 15.9725 19.009 16.5427 18.9554C17.113 18.902 18.3829 18.1792 18.642 17.4298C18.9013 16.6804 18.9013 16.0381 18.8235 15.9038C18.7458 15.7701 18.5384 15.6898 18.2273 15.5294C17.9162 15.3688 16.3871 14.5924 16.1021 14.4852C15.8169 14.3782 15.6096 14.3248 15.4021 14.6462C15.1947 14.967 14.5991 15.6898 14.4176 15.9038C14.2362 16.1184 14.0547 16.1451 13.7438 15.9846C13.4325 15.8235 12.4309 15.485 11.2425 14.3917C10.3179 13.541 9.69365 12.4904 9.51221 12.169C9.33076 11.8481 9.49277 11.6742 9.64873 11.5143C9.78848 11.3705 9.95986 11.1395 10.1155 10.9521C10.2706 10.7647 10.3224 10.631 10.4261 10.4169C10.5299 10.2027 10.4779 10.0152 10.4003 9.85471C10.3224 9.69417 9.71797 8.10686 9.44141 7.47228Z" fill="white"/>
</g>
<defs>
<linearGradient id="paint0_linear_111_97" x1="0.713867" y1="8.66667" x2="12.9581" y2="25.6112" gradientUnits="userSpaceOnUse">
<stop offset="0.333333" stop-color="#48C952"/>
<stop offset="1" stop-color="#44A054"/>
</linearGradient>
<clipPath id="clip0_111_97">
<rect width="25" height="26" fill="white"/>
</clipPath>
</defs>
</svg>
