<svg width="15" height="12" viewBox="0 0 15 12" fill="none" xmlns="http://www.w3.org/2000/svg">
<path d="M1.5 12C1.0875 12 0.734251 11.853 0.440251 11.559C0.146251 11.265 -0.000498727 10.912 1.27335e-06 10.5V1.5C1.27335e-06 1.0875 0.147001 0.734251 0.441001 0.440251C0.735001 0.146251 1.088 -0.000498727 1.5 1.27335e-06H13.5C13.9125 1.27335e-06 14.2657 0.147001 14.5597 0.441001C14.8537 0.735001 15.0005 1.088 15 1.5V10.5C15 10.9125 14.853 11.2657 14.559 11.5597C14.265 11.8537 13.912 12.0005 13.5 12H1.5ZM7.5 6.75L13.5 3V1.5L7.5 5.25L1.5 1.5V3L7.5 6.75Z" fill="#692424"/>
</svg>
