<svg width="15" height="15" viewBox="0 0 15 15" fill="none" xmlns="http://www.w3.org/2000/svg">
<path d="M3.01667 6.49167C4.21667 8.85 6.15 10.7833 8.50833 11.9833L10.3417 10.15C10.575 9.91667 10.9 9.85 11.1917 9.94167C12.125 10.25 13.125 10.4167 14.1667 10.4167C14.3877 10.4167 14.5996 10.5045 14.7559 10.6607C14.9122 10.817 15 11.029 15 11.25V14.1667C15 14.3877 14.9122 14.5996 14.7559 14.7559C14.5996 14.9122 14.3877 15 14.1667 15C10.4094 15 6.80609 13.5074 4.14932 10.8507C1.49256 8.19391 0 4.59057 0 0.833333C0 0.61232 0.0877973 0.400358 0.244078 0.244078C0.400358 0.0877973 0.61232 0 0.833333 0H3.75C3.97101 0 4.18298 0.0877973 4.33926 0.244078C4.49554 0.400358 4.58333 0.61232 4.58333 0.833333C4.58333 1.875 4.75 2.875 5.05833 3.80833C5.15 4.1 5.08333 4.425 4.85 4.65833L3.01667 6.49167Z" fill="#692424"/>
</svg>
