<svg width="13" height="16" viewBox="0 0 13 16" fill="none" xmlns="http://www.w3.org/2000/svg">
<path d="M8.61117 9.79066C8.51696 9.75833 7.92147 9.47662 8.29357 8.28948H8.28824C9.25821 7.24101 9.99945 5.55389 9.99945 3.89288C9.99945 1.33888 8.38127 0 6.50059 0C4.61873 0 3.00944 1.33826 3.00944 3.89288C3.00944 5.56073 3.74654 7.25469 4.72243 8.30067C5.10283 9.34789 4.42261 9.73656 4.2804 9.79129C2.31085 10.5388 0 11.9013 0 13.2464V13.7507C0 15.5833 3.38569 16 6.51896 16C9.65697 16 13 15.5833 13 13.7507V13.2464C13 11.8609 10.6779 10.5089 8.61117 9.79066Z" fill="#692424"/>
</svg>
